# xmcd
#
# Track frame offsets:
#	150
#	79393
#	123210
#	159023
#	169481
#	247470
#
# Disc length: 4354 seconds
#
# Revision: 3
# Processed by: cddbd v1.5.2PL0 Copyright (c) Steve Scherf et al.
# Submitted via: audiograbber 1.83.01
#
DISCID=4b110006
DTITLE=Tangerine Dream - The Virgin Years 1974-1978 [CD 1)
DYEAR=2011
DGENRE=Electronic
TTITLE0=Phaedra - Phaedra
TTITLE1=Phaedra - Mysterious Semblance At The Strand Of Nightmares
TTITLE2=Phaedra - Movements Of A Visionary
TTITLE3=Phaedra - Sequent C'
TTITLE4=Rubycon - Rubycon Part One
TTITLE5=Rubycon - Rubycon Part Two
EXTD=
EXTT0=
EXTT1=
EXTT2=
EXTT3=
EXTT4=
EXTT5=
PLAYORDER=
